<?xml version="1.0" encoding="utf-8"?>
<!-- Generator: Adobe Illustrator 22.0.0, SVG Export Plug-In . SVG Version: 6.00 Build 0)  -->
<svg version="1.1" id="Layer_1" xmlns="http://www.w3.org/2000/svg" xmlns:xlink="http://www.w3.org/1999/xlink" x="0px" y="0px"
	 viewBox="0 0 634.5 130" style="enable-background:new 0 0 634.5 130;" xml:space="preserve">
<style type="text/css">
	.st0{fill:#22A1E0;}
</style>
<path class="st0" d="M39.8,68.3c9.1,6.5,18.3,13,27.4,19.5c0.1,0.1,0.2,0.2,0.4,0.1c0-0.1,0-0.2,0-0.3c0-7.2,0-14.3,0-21.5
	c0-0.4-0.2-0.6-0.4-0.8c-2.6-1.9-5.3-3.7-7.9-5.6c-1.2-0.8-2.4-1.7-3.6-2.6c4.3-2.8,8.5-5.5,12.7-8.3C49.9,35.7,31.5,22.6,13,9.3
	c0,0.9,0,1.7,0,2.6c0,6.4,0,12.8,0,19.2c0,0.4,0.1,0.7,0.5,0.9c1.1,0.8,2.2,1.6,3.3,2.4C24,39.6,31.4,44.8,38.6,50
	c3.3,2.3,6.6,4.7,9.9,7.1c-0.2,0.2-0.4,0.3-0.6,0.4c-2.7,1.7-5.3,3.5-8,5.2c-0.4,0.3-0.7,0.3-1.1,0C31.2,57.3,23.6,51.9,16,46.5
	c-1-0.7-2-1.4-3-2.1c0,0.2,0,0.2,0,0.3c0,7.4,0,14.8,0,22.2c0,0.4,0.2,0.6,0.5,0.8c2.8,2,5.7,4,8.5,6c0.5,0.3,0.4,0.5,0,0.8
	c-3.1,2-6.2,4.1-9.4,6.1c-0.6,0.4-1.1,0.7-1.7,1.1c-0.6,0.5-0.6,0.7,0,1.1c3,2.1,5.9,4.3,8.9,6.4c15.8,11.3,31.6,22.5,47.5,33.8
	c0.1,0.1,0.2,0.3,0.4,0.1c0,0,0,0,0-0.1c0-7.2,0-14.3,0-21.5c0-0.4-0.2-0.5-0.4-0.7c-1.7-1.2-3.5-2.4-5.2-3.6
	C52,90.2,41.9,83,31.8,75.8c-0.7-0.5-1.4-1-2.1-1.6c3.1-2.1,6.2-4,9.2-6C39.3,67.9,39.5,68.1,39.8,68.3z M38.5,44.9
	c-7.5-5.3-15-10.6-22.5-16c-0.4-0.3-0.5-0.5-0.5-1c0-3.7,0-7.4,0-11.1c0-0.2,0-0.4,0-0.7C30.8,27,46,37.8,61.3,48.7
	c-1.9,1.2-3.6,2.4-5.4,3.6c-1.1,0.7-2.1,1.4-3.2,2.1c-0.4,0.2-0.6,0.2-0.9,0C47.3,51.2,42.9,48.1,38.5,44.9z M49.2,61.4
	c0.8-0.5,1.7-1.1,2.5-1.6c0.3-0.2,0.5-0.2,0.8,0c4.1,2.9,8.2,5.9,12.3,8.8c0.2,0.1,0.4,0.3,0.4,0.6c0,4.1,0,8.1,0,12.3
	c-7.5-5.3-14.8-10.6-22.3-15.9C45,64.2,47.1,62.8,49.2,61.4z M64.7,104.1c0.2,0.2,0.4,0.3,0.4,0.7c0,3.9,0,7.7,0,11.6
	c0,0,0,0.1-0.1,0.2c-15.9-11.4-31.9-22.7-47.9-34.2c1.4-0.9,2.7-1.8,4-2.6c1.5-1,3.1-2,4.6-3c0.3-0.2,0.5-0.2,0.7,0
	C39.2,85.9,52,95,64.7,104.1z M26.5,71.5c-0.3,0.2-0.4,0.1-0.7-0.1c-3.3-2.4-6.7-4.8-10-7.1c-0.2-0.1-0.3-0.3-0.3-0.6
	c0-4.2,0-8.4,0-12.7c6.8,4.8,13.5,9.6,20.3,14.4C32.6,67.5,29.5,69.5,26.5,71.5z"/>
<g>
	<path d="M446,104.6c0.7-2.7,1.2-4.5,1.7-6.4c5.8,1.1,11.7,3.4,16.7-1.1c1.5-1.3,1.6-4.1,2.4-6.2c-5,0-9.2,0.4-13.3-0.2
		c-2.1-0.3-4.5-1.8-6-3.5c-5.1-5.4-5.1-12.1-3.2-18.7c1.7-6,6.1-9.5,12.2-10.6c1.7-0.3,3.5-0.5,5.3-0.5c10.6,0.2,11.8,1.5,11.8,11.7
		c0,7.4,0.1,14.7,0,22.1c-0.1,9.2-5.1,14.4-14.3,14.4C454.9,105.9,450.7,105.1,446,104.6z M466.2,74.3c0-2.5,0.1-5-0.1-7.5
		c-0.1-0.8-0.7-2-1.4-2.3c-3.7-1.7-8.8-0.5-11.4,2.4c-3.1,3.4-3.6,9.8-1.3,14c1.9,3.4,5.7,4.9,10.1,4.2c2.8-0.4,4.6-1.5,4.1-4.8
		C466,78.4,466.2,76.4,466.2,74.3z"/>
	<path d="M397.1,92.8c3.1-9.2,5.9-18.1,9-26.9c2.2-6.2,4.8-12.4,7.5-18.5c0.4-1,2-2,3.1-2c2,0,5.3,0.2,5.9,1.3
		c7.1,14.6,12.1,30.1,16.7,46c-2.7,0-5.1,0-7.8,0c-1-3.2-1.8-6.5-3.1-9.7c-0.4-1-1.8-2.1-2.8-2.2c-4.9-0.2-9.7-0.2-14.6,0
		c-1,0-2.3,1.1-2.9,2.1c-0.7,1.2-0.9,2.7-1.3,4C405,93.6,405,93.6,397.1,92.8z M410.8,74c5.4,0,10,0,15.1,0
		c-2.5-6.8-4.8-13.1-7.1-19.4c-0.4,0.1-0.7,0.1-1.1,0.2C415.5,61,413.2,67.3,410.8,74z"/>
	<path d="M118.1,68.4c-1.3,0-2.3,0-3.5,0c0-8.1,0-16.1,0-24.2c1.1,0,2.2,0,3.4,0c0,2.4,0,4.8,0,6.9c2.3,0,4.5-0.2,6.6,0.1
		c2.6,0.4,4.3,2.4,4.4,5c0.1,4,0,8,0,12.1c-1.1,0-2.2,0-3.6,0c0-2.5,0-5,0-7.5c0-1.2,0-2.5-0.1-3.7c-0.1-1.4-0.8-2.7-2.2-2.8
		c-1.6-0.1-3.3,0.3-4.9,0.6c-0.2,0-0.3,0.9-0.3,1.5C118.1,60.4,118.1,64.3,118.1,68.4z"/>
	<path d="M511.8,77.5c-7.2,0-14.5,0-21.8,0c-1.1,8.4,4.5,10.7,20.4,8.4c0.4,1.8,0.8,3.6,1.2,5.6c-7.7,3-15.2,3.8-22.4-0.4
		c-8.1-4.7-10.1-18.6-4.3-27c4.2-6,13-8.3,19.7-5.2C510.7,61.8,513.8,69.4,511.8,77.5z M505.1,72.5c0-5.9-2.6-8.8-7.5-8.7
		c-4.7,0.2-7.9,3.8-7.6,8.7C495,72.5,500.1,72.5,505.1,72.5z"/>
	<path d="M136.5,61.3c0.8,1.2,1.3,2.7,2.4,3.4c1.1,0.7,2.6,0.9,4,0.9s2.9-0.5,4.3-0.7c1,3,1,3.1-2,3.6c-1.5,0.3-3.2,0.4-4.7,0.3
		c-5.3-0.4-8.3-5.1-7.3-11c0.9-5.1,5-7.8,10-6.7c2.8,0.7,4.4,2.5,4.9,5.2c0.3,1.3,0,2.8,0,4.4c-3.7,0-7.4,0-11.1,0
		C136.9,60.9,136.7,61.1,136.5,61.3z M144.7,58.4c0-2.9-1.1-4.3-3.3-4.4c-2.5-0.1-4,1.4-4.3,4.4c0.7,0,1.3,0,1.9,0
		C140.8,58.4,142.7,58.4,144.7,58.4z"/>
	<path d="M527.6,93c-2.7,0-4.7,0-7.2,0c0-8.8,0-17.4,0-26.1c0-6.7-0.1-7,6.6-8.3c4.1-0.8,8.5-1,12.7-0.5c6.2,0.7,9.8,4.4,10.1,10.6
		c0.4,7.9,0.1,15.9,0.1,24.1c-2.2,0-4.4,0-7.2,0c0-3.9,0-7.9,0-11.9c0-3.2,0.1-6.4-0.1-9.6c-0.3-5.5-3-7.8-8.6-7.4
		c-5.7,0.4-6.4,1.2-6.4,6.7C527.6,78,527.6,85.4,527.6,93z"/>
	<path d="M589.2,58.6c2.6,0,4.8,0,7.2,0c1.1,9.5,3.7,18.4,8.8,26.4c0.4,0.1,0.8,0.1,1.2,0.2c2.4-8.7,4.9-17.4,7.4-26.5
		c1.5,0,3.7,0,6.7,0c-1.2,5-1.9,9.8-3.4,14.4c-3,9.5-6.8,18.8-13.8,26.2c-3.6,3.7-8,5.9-12.3,6c-0.3-1.8-0.7-3.6-1-5
		c3.3-2.2,6.4-4.1,9.3-6.2c1.8-1.3,1.8-2.9,0.4-4.9C593.7,80,590.2,69.9,589.2,58.6z"/>
	<path d="M100.8,48c-2.4,0-4.5,0-6.7,0c0-1.1,0-2.1,0-3.2c5.6,0,11.2,0,16.9,0c0,1,0,2,0,3.1c-2.2,0-4.3,0-6.6,0
		c0,6.9,0,13.6,0,20.4c-1.3,0-2.4,0-3.6,0C100.8,61.7,100.8,55,100.8,48z"/>
	<path d="M584.2,65.7c-7.1-1.7-13.7-4.1-17.5,3.4c-2.6,5-2.6,10.6,1,15.1c4.3,5.3,10,3.6,15.9,1.7c0.5,1.9,0.9,3.7,1.4,5.5
		c-8.2,4.6-19,2.8-23.8-3.6c-5.1-6.7-4.4-19.6,1.3-25.5c4.6-4.8,15.4-6.6,20.8-2.9C584.4,60.1,583.9,63.1,584.2,65.7z"/>
</g>
<g>
	<path d="M265.4,93.1c-2.3,0-4.3,0-6.8,0c0-2.9,0-5.6,0-8.4c0-4.7,0-9.4-0.1-14c-0.1-2.8-1.3-5.5-4.2-5.7c-3-0.3-6.1,0.6-9.1,1.2
		c-0.4,0.1-0.5,1.9-0.5,2.9c0,7.9,0,15.9,0,24c-2.5,0-4.6,0-7.1,0c0-10.2,0-20.2,0.1-30.3c0-0.7,0.8-1.7,1.5-2
		c7-2.6,14.1-4.2,21.4-0.5c0.8,0.4,2.2,0.2,3.2-0.2c4.6-1.8,9.2-2.5,14.1-1.4c4.8,1.1,8.5,4.5,8.8,9.3c0.4,8.3,0.1,16.5,0.1,25
		c-2.3,0-4.3,0-6.9,0c0-4.2,0-8.3,0-12.5c0-2.7,0.1-5.4,0-8.1c-0.2-6.5-3.9-9.3-10.2-7.7c-1.4,0.4-2.8,1-4,1.5
		C265.4,75.3,265.4,84,265.4,93.1z"/>
	<path d="M324.5,93c-2.2,0-4.3,0-6.8,0c0-3.9,0-7.8,0-11.6c0-2.9,0-5.9,0-8.8c-0.1-7.4-6.1-10.8-12.6-7c-0.8,0.5-1.3,2-1.3,3.1
		c-0.1,8-0.1,15.9-0.1,24.1c-2.3,0-4.5,0-6.9,0c-0.1-0.6-0.3-1.4-0.3-2.2c0-8.9,0.1-17.8-0.1-26.7c0-2.1,0.7-3.2,2.7-3.8
		c6.8-2,13.6-3.6,20.4,0.1c0.8,0.4,2.2,0.1,3.2-0.2c4.6-1.8,9.2-2.5,14.1-1.3c5,1.2,8.6,4.9,8.8,10.1c0.3,7.9,0.1,15.9,0.1,24.1
		c-2.2,0-4.4,0-7,0c0-4.8,0-9.5,0-14.3c0-1.5,0-3,0-4.6c0-3.4,0.2-7.1-3.5-8.9c-3.8-1.8-7.5-0.8-10.7,1.2
		C324.5,75.4,324.5,84.1,324.5,93z"/>
	<path d="M178.5,73.5c0-2,0-3.8,0-5.8c5.2,0,10.2,0,15.6,0c0,7.4,0,14.6-0.1,21.8c0,0.6-0.7,1.5-1.3,1.8c-8.7,4.1-24.2,4.5-31.6-5.9
		c-6.5-9.2-6.5-30.9,7.7-37.6c7.3-3.4,14.8-3,22.2-0.4c3,1.1,0.8,3.1,0.7,4.7c-0.1,0.7-0.4,1.3-0.6,1.9c-3.2-0.6-6.3-1.4-9.4-1.7
		c-8.8-0.9-15.1,3.8-16.6,12.5c-0.5,3.3-0.6,6.8,0,10.1c2.2,11.7,11.8,13.7,20.5,11.9c0.7-0.1,1.6-1.4,1.6-2.1
		c0.2-3.4,0.1-6.8,0.1-10.6C184.4,73.8,181.5,73.6,178.5,73.5z"/>
	<path d="M220.5,72.9c0.9-7.8-2.2-9.3-16.4-7.2c-0.4-1.7-0.8-3.4-1.3-5.4c5.8-2.2,11.5-3,17.3-1.2c4.6,1.4,7.2,4.9,7.5,9.6
		c0.3,6.8,0.3,13.6,0.2,20.4c0,0.9-1.1,2.3-2,2.7c-5.8,2.4-11.8,2.9-17.9,1.3c-4.6-1.2-7.1-4.7-7.2-9.2c-0.1-4.9,2.1-8.5,6.9-9.7
		C211.8,73.2,216,73.3,220.5,72.9z M220.9,83c0-4.7-0.1-4.8-5.3-4.9c-5,0-7.6,1.7-7.6,5.2c0,3.1,2.4,5,6.7,5
		C220,88.4,220.9,87.6,220.9,83z"/>
	<path d="M356.5,65.6c-0.4-1.6-0.8-3.3-1.3-5.4c6.6-2.2,13-3.4,19.4-0.2c3.8,1.9,5.4,5.5,5.5,9.6c0.2,6.4,0.2,12.9,0,19.3
		c0,1-1,2.4-1.8,2.8c-5.8,2.5-11.8,3-17.8,1.4c-4.8-1.2-7.4-4.8-7.4-9.5c0-4.7,2.4-8.5,7.2-9.5c4-0.9,8.3-0.8,12.5-1.1
		c1-5.5-1.5-8.7-7.4-8.6C362.5,64.5,359.7,65.2,356.5,65.6z M373.2,83c0-4.7-0.1-4.8-5.3-4.8c-5.1,0-7.6,1.7-7.5,5.3
		c0,3.3,2.3,4.9,6.7,5C372.4,88.4,373.2,87.7,373.2,83z"/>
</g>
</svg>
